<svg width="25" height="24" viewBox="0 0 25 24" fill="none" xmlns="http://www.w3.org/2000/svg">
<path fill-rule="evenodd" clip-rule="evenodd" d="M5.86365 5.75886C5.75536 5.75073 5.61016 5.75025 5.36174 5.75025H4.50049C4.08627 5.75025 3.75049 5.41446 3.75049 5.00025C3.75049 4.58603 4.08627 4.25025 4.50049 4.25025H5.36174C5.3695 4.25025 5.37723 4.25025 5.38495 4.25025C5.60224 4.25023 5.80459 4.25021 5.97583 4.26306C6.16257 4.27706 6.36484 4.30901 6.57067 4.40018C6.86911 4.53237 7.12463 4.74539 7.30837 5.01518C7.43508 5.20123 7.50291 5.39446 7.55029 5.57563C7.59373 5.74176 7.63013 5.9408 7.66921 6.15455L7.76943 6.70242L17.3996 6.97343C17.5641 6.97803 17.691 6.98157 17.8052 6.99429C19.1116 7.13992 20.1322 8.18972 20.241 9.49971C20.2506 9.61413 20.2505 9.74107 20.2505 9.90568V9.96501C20.2505 10.1206 20.2505 10.2409 20.2418 10.3506C20.1421 11.6027 19.2067 12.6281 17.969 12.8421C17.8606 12.8609 17.7408 12.8719 17.5858 12.8861L11.1134 13.4816C10.6235 13.5267 10.213 13.5645 9.87316 13.569C9.51748 13.5737 9.18016 13.5443 8.8472 13.4218C8.33363 13.2327 7.88814 12.8947 7.56776 12.451C7.36005 12.1634 7.24087 11.8464 7.14966 11.5026C7.06251 11.1741 6.98834 10.7686 6.89983 10.2847L6.19787 6.4473C6.15317 6.20293 6.12656 6.06019 6.09909 5.95513C6.08228 5.89087 6.07087 5.86477 6.06747 5.85791C6.04168 5.82067 6.00625 5.79113 5.96497 5.77246C5.95761 5.77035 5.92989 5.76382 5.86365 5.75886ZM5.96709 5.77316L5.96497 5.77246L5.96709 5.77316ZM6.06641 5.85596L6.06747 5.85791L6.06641 5.85596ZM8.04535 8.21078L8.37016 9.98643C8.46522 10.5061 8.52927 10.8532 8.59951 11.118C8.66738 11.3738 8.72696 11.4941 8.78384 11.5729C8.92947 11.7745 9.13196 11.9282 9.36541 12.0141C9.45658 12.0477 9.58847 12.0727 9.85313 12.0691C10.127 12.0655 10.4786 12.0337 11.0046 11.9853L17.4198 11.395C17.6167 11.3769 17.6718 11.3713 17.7135 11.3641C18.276 11.2668 18.7012 10.8007 18.7465 10.2316C18.7499 10.1894 18.7505 10.134 18.7505 9.9363C18.7505 9.72681 18.7498 9.66775 18.7462 9.62388C18.6967 9.02844 18.2328 8.55125 17.639 8.48506C17.5952 8.48018 17.5362 8.47787 17.3268 8.47198L8.04535 8.21078Z" fill="#17181A"/>
<path fill-rule="evenodd" clip-rule="evenodd" d="M10.0005 16.7502C9.58627 16.7502 9.25049 17.086 9.25049 17.5002C9.25049 17.9145 9.58627 18.2502 10.0005 18.2502C10.4147 18.2502 10.7505 17.9145 10.7505 17.5002C10.7505 17.086 10.4147 16.7502 10.0005 16.7502ZM7.75049 17.5002C7.75049 16.2576 8.75785 15.2502 10.0005 15.2502C11.2431 15.2502 12.2505 16.2576 12.2505 17.5002C12.2505 18.7429 11.2431 19.7502 10.0005 19.7502C8.75785 19.7502 7.75049 18.7429 7.75049 17.5002Z" fill="#17181A"/>
<path fill-rule="evenodd" clip-rule="evenodd" d="M17.0005 16.7502C16.5863 16.7502 16.2505 17.086 16.2505 17.5002C16.2505 17.9145 16.5863 18.2502 17.0005 18.2502C17.4147 18.2502 17.7505 17.9145 17.7505 17.5002C17.7505 17.086 17.4147 16.7502 17.0005 16.7502ZM14.7505 17.5002C14.7505 16.2576 15.7578 15.2502 17.0005 15.2502C18.2431 15.2502 19.2505 16.2576 19.2505 17.5002C19.2505 18.7429 18.2431 19.7502 17.0005 19.7502C15.7578 19.7502 14.7505 18.7429 14.7505 17.5002Z" fill="#17181A"/>
</svg>
