<svg width="17" height="16" viewBox="0 0 17 16" fill="none" xmlns="http://www.w3.org/2000/svg">
<path fill-rule="evenodd" clip-rule="evenodd" d="M8.49997 1.70703C5.04819 1.70703 2.24997 4.50525 2.24997 7.95703C2.24997 11.4088 5.04819 14.207 8.49997 14.207C11.9517 14.207 14.75 11.4088 14.75 7.95703C14.75 4.50525 11.9517 1.70703 8.49997 1.70703ZM0.749969 7.95703C0.749969 3.67682 4.21976 0.207031 8.49997 0.207031C12.7802 0.207031 16.25 3.67682 16.25 7.95703C16.25 12.2372 12.7802 15.707 8.49997 15.707C4.21976 15.707 0.749969 12.2372 0.749969 7.95703Z" fill="white"/>
<path fill-rule="evenodd" clip-rule="evenodd" d="M0.749969 7.95703C0.749969 7.54282 1.08576 7.20705 1.49997 7.20705H15.5C15.9142 7.20705 16.25 7.54282 16.25 7.95703C16.25 8.37124 15.9142 8.70705 15.5 8.70705H1.49997C1.08576 8.70705 0.749969 8.37124 0.749969 7.95703Z" fill="white"/>
<path fill-rule="evenodd" clip-rule="evenodd" d="M6.45014 7.95703C6.49762 10.0766 7.21976 12.1179 8.49997 13.7896C9.78017 12.1179 10.5023 10.0766 10.5498 7.95703C10.5023 5.83749 9.78017 3.79614 8.49997 2.12448C7.21976 3.79614 6.49762 5.83749 6.45014 7.95703ZM8.49997 0.957031L7.94621 0.451214C6.0727 2.50229 5.00799 5.16407 4.95013 7.94141C4.94991 7.95182 4.94991 7.96224 4.95013 7.97265C5.00799 10.75 6.0727 13.4118 7.94621 15.4628C8.0883 15.6184 8.28928 15.707 8.49997 15.707C8.71066 15.707 8.91163 15.6184 9.05373 15.4628C10.9272 13.4118 11.9919 10.75 12.0498 7.97265C12.05 7.96224 12.05 7.95182 12.0498 7.94141C11.9919 5.16407 10.9272 2.50229 9.05373 0.451214L8.49997 0.957031Z" fill="white"/>
</svg>
