<svg width="17" height="19" viewBox="0 0 17 19" fill="none" xmlns="http://www.w3.org/2000/svg">
<path fill-rule="evenodd" clip-rule="evenodd" d="M9.47402 18.6135C11.5897 17.1698 16.4166 13.377 16.4166 8.82212C16.4166 4.44987 12.8722 0.905457 8.49998 0.905457C4.12773 0.905457 0.583313 4.44987 0.583313 8.82212C0.583313 13.377 5.41023 17.1698 7.52594 18.6135C8.11757 19.0172 8.88239 19.0172 9.47402 18.6135ZM8.49998 11.3221C9.88069 11.3221 11 10.2028 11 8.82212C11 7.44141 9.88069 6.32212 8.49998 6.32212C7.11927 6.32212 5.99998 7.44141 5.99998 8.82212C5.99998 10.2028 7.11927 11.3221 8.49998 11.3221Z" fill="white"/>
</svg>
