<svg width="17" height="16" viewBox="0 0 17 16" fill="none" xmlns="http://www.w3.org/2000/svg">
<path d="M11.9307 11.139L11.4152 11.9123C11.3123 12.0666 11.1762 12.1983 10.9969 12.2457C10.4094 12.4009 8.84988 12.471 6.47548 10.0966C4.10109 7.72225 4.17117 6.16266 4.32639 5.57522C4.37377 5.39589 4.50547 5.2598 4.65981 5.15691L5.43306 4.64141C6.00876 4.25761 6.16433 3.47978 5.78053 2.90408L4.32012 0.713464C3.98512 0.210967 3.33931 0.0189859 2.78421 0.256885L2.12542 0.539225C1.62496 0.753708 1.21672 1.13864 0.97322 1.62564C0.769783 2.03251 0.612105 2.46097 0.590741 2.91537C0.523415 4.34735 0.837412 7.87532 4.76711 11.805C8.6968 15.7347 12.2247 16.0487 13.6567 15.9814C14.1111 15.96 14.5396 15.8023 14.9465 15.5989C15.4335 15.3554 15.8184 14.9471 16.0329 14.4467L16.3152 13.7879C16.5531 13.2328 16.3611 12.587 15.8586 12.252L13.668 10.7916C13.0923 10.4078 12.3145 10.5633 11.9307 11.139Z" fill="white"/>
</svg>
