<svg width="19" height="16" viewBox="0 0 19 16" fill="none" xmlns="http://www.w3.org/2000/svg">
<path fill-rule="evenodd" clip-rule="evenodd" d="M2.32501 0.472046H16.9251C17.9289 0.472046 18.7501 1.2933 18.7501 2.29706V13.2471C18.7501 14.2509 17.9289 15.0721 16.9251 15.0721H2.32501C1.32126 15.0721 0.5 14.2509 0.5 13.2471L0.509125 2.29706C0.509125 1.2933 1.32126 0.472046 2.32501 0.472046ZM10.1087 8.38354L16.5601 4.35026C16.7882 4.20426 16.9251 3.95788 16.9251 3.69326C16.9251 3.08188 16.259 2.71687 15.7389 3.03625L9.62507 6.85965L3.51128 3.03625C2.99115 2.71687 2.32503 3.08188 2.32503 3.69326C2.32503 3.95788 2.4619 4.20426 2.69003 4.35026L9.14145 8.38354C9.43345 8.56604 9.8167 8.56604 10.1087 8.38354Z" fill="white"/>
</svg>
