<?xml version="1.0" encoding="UTF-8" ?>
<!DOCTYPE svg PUBLIC "-//W3C//DTD SVG 1.1//EN" "http://www.w3.org/Graphics/SVG/1.1/DTD/svg11.dtd">
<svg width="100pt" height="100pt" viewBox="0 0 100 100" version="1.1" xmlns="http://www.w3.org/2000/svg">
<g id="#ffffffff">
<path fill="#ffffff" opacity="1.00" d=" M 82.91 9.92 C 84.69 7.28 86.72 4.23 90.08 3.60 C 93.28 3.37 96.24 5.80 97.39 8.67 C 98.32 11.13 96.88 13.59 95.68 15.67 C 79.85 40.19 63.89 64.62 48.19 89.22 C 46.29 92.14 43.72 95.23 39.96 95.45 C 36.63 95.79 34.18 93.08 32.19 90.81 C 23.77 80.57 15.44 70.25 6.87 60.12 C 5.23 58.06 3.41 56.01 2.62 53.44 C 1.53 49.54 4.98 45.17 9.01 45.25 C 11.86 45.08 14.06 47.21 15.83 49.16 C 23.67 58.43 31.04 68.10 39.11 77.16 C 42.23 73.47 44.58 69.24 47.19 65.19 C 59.14 46.80 71.06 28.38 82.91 9.92 Z" />
</g>
</svg>
