<svg width="16" height="14" viewBox="0 0 16 14" fill="none" xmlns="http://www.w3.org/2000/svg">
<path d="M8.22512 12.8363C8.22512 12.8363 1.49997 9.07019 1.49997 4.49708C1.50011 3.68881 1.78018 2.90553 2.29256 2.28042C2.80494 1.6553 3.51801 1.22694 4.31054 1.06816C5.10306 0.909377 5.92612 1.02998 6.63977 1.40945C7.35343 1.78893 7.91362 2.40386 8.22513 3.1497L8.22511 3.14971C8.53662 2.40387 9.09682 1.78894 9.81047 1.40946C10.5241 1.02998 11.3472 0.909377 12.1397 1.06816C12.9322 1.22694 13.6453 1.6553 14.1577 2.28042C14.6701 2.90553 14.9501 3.68881 14.9503 4.49708C14.9503 9.07019 8.22512 12.8363 8.22512 12.8363Z" stroke="#BDBDBE" stroke-width="1.2" stroke-linecap="round" stroke-linejoin="round"/>
</svg>
