<svg width="25" height="24" viewBox="0 0 25 24" fill="none" xmlns="http://www.w3.org/2000/svg">
<path fill-rule="evenodd" clip-rule="evenodd" d="M12.4998 4.75024C11.2289 4.75024 10.0527 5.93926 10.0527 7.59693C10.0527 9.2546 11.2289 10.4436 12.4998 10.4436C13.7707 10.4436 14.9468 9.2546 14.9468 7.59693C14.9468 5.93926 13.7707 4.75024 12.4998 4.75024ZM8.55273 7.59693C8.55273 5.28181 10.2393 3.25024 12.4998 3.25024C14.7603 3.25024 16.4468 5.28181 16.4468 7.59693C16.4468 9.91205 14.7603 11.9436 12.4998 11.9436C10.2393 11.9436 8.55273 9.91205 8.55273 7.59693Z" fill="#17181A"/>
<path fill-rule="evenodd" clip-rule="evenodd" d="M7.19835 16.8149C6.93859 17.1458 6.85596 17.4113 6.85596 17.5881C6.85596 18.1367 7.00642 18.3857 7.16045 18.526C7.34244 18.6918 7.65971 18.8249 8.19714 18.892C8.72814 18.9584 9.37138 18.9494 10.121 18.9181C10.2976 18.9108 10.4802 18.9022 10.6672 18.8934C11.2515 18.8658 11.8788 18.8363 12.5001 18.8363C13.1213 18.8363 13.7486 18.8658 14.3329 18.8934C14.5199 18.9022 14.7025 18.9108 14.8791 18.9181C15.6288 18.9494 16.272 18.9584 16.803 18.892C17.3404 18.8249 17.6577 18.6918 17.8397 18.526C17.9937 18.3857 18.1442 18.1367 18.1442 17.5881C18.1442 17.4113 18.0615 17.1458 17.8018 16.8149C17.5463 16.4895 17.1532 16.1464 16.6334 15.8322C15.5944 15.2042 14.1301 14.7415 12.5001 14.7415C10.87 14.7415 9.40578 15.2042 8.36669 15.8322C7.84692 16.1464 7.45382 16.4895 7.19835 16.8149ZM7.5908 14.5485C8.86593 13.7778 10.5988 13.2415 12.5001 13.2415C14.4014 13.2415 16.1342 13.7778 17.4093 14.5485C18.0467 14.9337 18.59 15.3898 18.9816 15.8886C19.369 16.382 19.6442 16.9657 19.6442 17.5881C19.6442 18.4383 19.395 19.1384 18.8497 19.635C18.3323 20.1062 17.6505 20.2978 16.989 20.3805C16.3211 20.4639 15.5657 20.448 14.8167 20.4168C14.6229 20.4088 14.4293 20.3996 14.2357 20.3905C13.6595 20.3634 13.0827 20.3363 12.5001 20.3363C11.9175 20.3363 11.3407 20.3634 10.7645 20.3905C10.5708 20.3996 10.3772 20.4088 10.1835 20.4168C9.43446 20.448 8.67899 20.4639 8.01109 20.3805C7.34963 20.2978 6.66782 20.1062 6.15045 19.635C5.60513 19.1384 5.35596 18.4383 5.35596 17.5881C5.35596 16.9657 5.63117 16.382 6.01853 15.8886C6.41018 15.3898 6.95347 14.9337 7.5908 14.5485Z" fill="#17181A"/>
</svg>
